<svg width="343" height="254" viewBox="0 0 343 254" fill="none" xmlns="http://www.w3.org/2000/svg">
<g opacity="0.1">
<path opacity="0.1" d="M274.645 179.748C274.645 179.748 250.159 176.57 268.42 216.184C268.42 216.184 285.062 209.055 285.725 192.976C285.86 189.847 284.842 186.778 282.864 184.349C280.885 181.92 278.085 180.301 274.992 179.798L274.645 179.748Z" fill="black"/>
<path opacity="0.1" d="M275.005 179.688C275.005 179.688 280.548 201.777 268.439 216.187" stroke="white" stroke-miterlimit="10"/>
<path opacity="0.1" d="M268.108 218.227C268.108 218.227 276.924 196.508 293.388 188.451C300.32 185.116 305.983 179.622 309.523 172.794C311.178 169.542 312.531 166.146 313.566 162.647" stroke="white" stroke-width="2" stroke-miterlimit="10"/>
<path opacity="0.1" d="M323.911 157.512C322.195 159.669 313.313 162.825 313.313 162.825C313.313 162.825 314.382 153.45 316.098 151.309C316.49 150.75 316.992 150.277 317.573 149.92C318.154 149.562 318.802 149.327 319.478 149.229C320.153 149.131 320.842 149.172 321.5 149.35C322.159 149.528 322.775 149.839 323.309 150.264C323.843 150.688 324.285 151.218 324.607 151.819C324.929 152.421 325.124 153.082 325.181 153.762C325.237 154.442 325.154 155.126 324.936 155.773C324.719 156.419 324.371 157.015 323.914 157.522L323.911 157.512Z" fill="black"/>
<path opacity="0.1" d="M320.863 174.591C318.249 175.469 309.083 173.285 309.083 173.285C309.083 173.285 315.07 166.01 317.683 165.132C318.316 164.872 318.996 164.745 319.68 164.759C320.364 164.773 321.038 164.926 321.66 165.211C322.283 165.495 322.84 165.904 323.298 166.412C323.756 166.921 324.104 167.517 324.322 168.166C324.54 168.814 324.623 169.5 324.565 170.182C324.507 170.863 324.31 171.525 323.985 172.128C323.661 172.73 323.217 173.259 322.68 173.683C322.143 174.107 321.524 174.416 320.863 174.591Z" fill="black"/>
<path opacity="0.1" d="M304.337 194.783C301.639 194.223 294.826 187.71 294.826 187.71C294.826 187.71 303.668 184.451 306.369 185.01C307.591 185.351 308.638 186.143 309.298 187.226C309.958 188.31 310.182 189.603 309.923 190.845C309.665 192.087 308.944 193.184 307.907 193.915C306.87 194.645 305.593 194.954 304.337 194.779V194.783Z" fill="black"/>
<path opacity="0.1" d="M288.392 207.246C285.638 207.149 277.822 201.883 277.822 201.883C277.822 201.883 285.988 197.17 288.742 197.27C290.005 197.399 291.172 198.002 292.006 198.959C292.84 199.915 293.28 201.152 293.235 202.42C293.191 203.688 292.665 204.892 291.766 205.787C290.867 206.683 289.661 207.203 288.392 207.243V207.246Z" fill="black"/>
<path opacity="0.1" d="M300.548 167.169C300.901 169.904 306.869 177.192 306.869 177.192C306.869 177.192 310.799 168.629 310.449 165.894C310.406 165.211 310.223 164.545 309.912 163.935C309.601 163.326 309.168 162.787 308.64 162.351C308.112 161.916 307.501 161.593 306.843 161.404C306.186 161.214 305.496 161.161 304.817 161.249C304.139 161.336 303.485 161.562 302.897 161.912C302.309 162.262 301.799 162.729 301.399 163.284C300.998 163.839 300.716 164.47 300.57 165.138C300.424 165.807 300.416 166.498 300.548 167.169Z" fill="black"/>
<path opacity="0.1" d="M282.083 181.995C283.236 184.495 291.115 189.667 291.115 189.667C291.115 189.667 292.303 180.32 291.149 177.82C290.904 177.181 290.529 176.601 290.05 176.113C289.571 175.625 288.997 175.241 288.363 174.983C287.729 174.726 287.049 174.602 286.365 174.618C285.681 174.633 285.008 174.789 284.387 175.076C283.766 175.362 283.21 175.772 282.754 176.282C282.298 176.791 281.951 177.389 281.735 178.038C281.519 178.687 281.438 179.373 281.498 180.054C281.558 180.735 281.757 181.397 282.083 181.998V181.995Z" fill="black"/>
<path opacity="0.1" d="M266.113 198.852C266.826 201.514 273.72 207.94 273.72 207.94C273.72 207.94 276.471 198.93 275.755 196.267C275.622 195.596 275.352 194.959 274.963 194.396C274.573 193.832 274.072 193.355 273.491 192.994C272.909 192.632 272.26 192.394 271.582 192.293C270.905 192.193 270.214 192.232 269.553 192.41C268.891 192.587 268.273 192.898 267.737 193.324C267.201 193.75 266.758 194.281 266.435 194.885C266.113 195.489 265.918 196.153 265.862 196.835C265.807 197.517 265.892 198.204 266.113 198.852Z" fill="black"/>
<path opacity="0.25" d="M323.911 157.512C322.195 159.669 313.313 162.825 313.313 162.825C313.313 162.825 314.382 153.45 316.098 151.309C316.49 150.75 316.992 150.277 317.573 149.92C318.154 149.562 318.802 149.327 319.478 149.229C320.153 149.131 320.842 149.172 321.5 149.35C322.159 149.528 322.775 149.839 323.309 150.264C323.843 150.688 324.285 151.218 324.607 151.819C324.929 152.421 325.124 153.082 325.181 153.762C325.237 154.442 325.154 155.126 324.936 155.773C324.719 156.419 324.371 157.015 323.914 157.522L323.911 157.512Z" fill="black"/>
<path opacity="0.25" d="M320.863 174.591C318.249 175.469 309.083 173.285 309.083 173.285C309.083 173.285 315.07 166.01 317.683 165.132C318.316 164.872 318.996 164.745 319.68 164.759C320.364 164.773 321.038 164.926 321.66 165.211C322.283 165.495 322.84 165.904 323.298 166.412C323.756 166.921 324.104 167.517 324.322 168.166C324.54 168.814 324.623 169.5 324.565 170.182C324.507 170.863 324.31 171.525 323.985 172.128C323.661 172.73 323.217 173.259 322.68 173.683C322.143 174.107 321.524 174.416 320.863 174.591Z" fill="black"/>
<path opacity="0.25" d="M304.337 194.783C301.639 194.223 294.826 187.71 294.826 187.71C294.826 187.71 303.668 184.451 306.369 185.01C307.591 185.351 308.638 186.143 309.298 187.226C309.958 188.31 310.182 189.603 309.923 190.845C309.665 192.087 308.944 193.184 307.907 193.915C306.87 194.645 305.593 194.954 304.337 194.779V194.783Z" fill="black"/>
<path opacity="0.25" d="M288.392 207.246C285.638 207.149 277.822 201.883 277.822 201.883C277.822 201.883 285.988 197.17 288.742 197.27C290.005 197.399 291.172 198.002 292.006 198.959C292.84 199.915 293.28 201.152 293.235 202.42C293.191 203.688 292.665 204.892 291.766 205.787C290.867 206.683 289.661 207.203 288.392 207.243V207.246Z" fill="black"/>
<path opacity="0.25" d="M300.548 167.169C300.901 169.904 306.869 177.192 306.869 177.192C306.869 177.192 310.799 168.629 310.449 165.894C310.406 165.211 310.223 164.545 309.912 163.935C309.601 163.326 309.168 162.787 308.64 162.351C308.112 161.916 307.501 161.593 306.843 161.404C306.186 161.214 305.496 161.161 304.817 161.249C304.139 161.336 303.485 161.562 302.897 161.912C302.309 162.262 301.799 162.729 301.399 163.284C300.998 163.839 300.716 164.47 300.57 165.138C300.424 165.807 300.416 166.498 300.548 167.169Z" fill="black"/>
<path opacity="0.25" d="M282.083 181.995C283.236 184.495 291.115 189.667 291.115 189.667C291.115 189.667 292.303 180.32 291.149 177.82C290.904 177.181 290.529 176.601 290.05 176.113C289.571 175.625 288.997 175.241 288.363 174.983C287.729 174.726 287.049 174.602 286.365 174.618C285.681 174.633 285.008 174.789 284.387 175.076C283.766 175.362 283.21 175.772 282.754 176.282C282.298 176.791 281.951 177.389 281.735 178.038C281.519 178.687 281.438 179.373 281.498 180.054C281.558 180.735 281.757 181.397 282.083 181.998V181.995Z" fill="black"/>
<path opacity="0.25" d="M266.113 198.852C266.826 201.514 273.72 207.94 273.72 207.94C273.72 207.94 276.471 198.93 275.755 196.267C275.622 195.596 275.352 194.959 274.963 194.396C274.573 193.832 274.072 193.355 273.491 192.994C272.909 192.632 272.26 192.394 271.582 192.293C270.905 192.193 270.214 192.232 269.553 192.41C268.891 192.587 268.273 192.898 267.737 193.324C267.201 193.75 266.758 194.281 266.435 194.885C266.113 195.489 265.918 196.153 265.862 196.835C265.807 197.517 265.892 198.204 266.113 198.852Z" fill="black"/>
<path opacity="0.1" d="M279.851 228.109C279.851 228.109 288.667 206.389 305.131 198.333C312.06 194.995 317.719 189.5 321.257 182.673C322.912 179.421 324.265 176.024 325.299 172.526" stroke="white" stroke-width="2" stroke-miterlimit="10"/>
<path opacity="0.1" d="M335.638 167.388C333.922 169.544 325.04 172.701 325.04 172.701C325.04 172.701 326.109 163.325 327.825 161.184C328.678 160.238 329.859 159.652 331.129 159.546C332.398 159.44 333.66 159.822 334.658 160.615C335.655 161.408 336.312 162.551 336.495 163.811C336.677 165.072 336.372 166.354 335.641 167.397L335.638 167.388Z" fill="black"/>
<path opacity="0.1" d="M332.596 184.466C329.983 185.345 320.816 183.16 320.816 183.16C320.816 183.16 326.803 175.885 329.417 175.007C330.645 174.681 331.951 174.835 333.07 175.437C334.189 176.039 335.037 177.043 335.441 178.247C335.846 179.451 335.777 180.764 335.249 181.919C334.72 183.074 333.772 183.985 332.596 184.466Z" fill="black"/>
<path opacity="0.1" d="M316.07 204.671C313.372 204.111 306.56 197.598 306.56 197.598C306.56 197.598 315.401 194.339 318.102 194.898C319.325 195.239 320.372 196.031 321.032 197.114C321.692 198.198 321.915 199.491 321.657 200.733C321.398 201.975 320.678 203.072 319.64 203.802C318.603 204.533 317.327 204.842 316.07 204.667V204.671Z" fill="black"/>
<path opacity="0.1" d="M300.122 217.118C297.368 217.021 289.552 211.755 289.552 211.755C289.552 211.755 297.718 207.049 300.472 207.146C301.735 207.274 302.902 207.878 303.736 208.834C304.57 209.79 305.01 211.028 304.965 212.296C304.921 213.564 304.396 214.767 303.496 215.663C302.597 216.558 301.391 217.078 300.122 217.118Z" fill="black"/>
<path opacity="0.1" d="M312.278 177.057C312.631 179.791 318.599 187.079 318.599 187.079C318.599 187.079 322.529 178.516 322.179 175.782C322.136 175.099 321.954 174.432 321.642 173.823C321.331 173.214 320.898 172.675 320.371 172.239C319.843 171.804 319.231 171.481 318.573 171.291C317.916 171.102 317.226 171.049 316.548 171.136C315.869 171.224 315.215 171.45 314.627 171.8C314.039 172.15 313.529 172.617 313.129 173.172C312.729 173.727 312.447 174.358 312.3 175.026C312.154 175.694 312.146 176.386 312.278 177.057Z" fill="black"/>
<path opacity="0.1" d="M293.816 191.858C294.97 194.358 302.849 199.53 302.849 199.53C302.849 199.53 304.037 190.183 302.883 187.682C302.278 186.565 301.27 185.721 300.064 185.319C298.858 184.918 297.544 184.991 296.39 185.523C295.236 186.055 294.328 187.006 293.85 188.183C293.371 189.36 293.36 190.675 293.816 191.861V191.858Z" fill="black"/>
<path opacity="0.1" d="M277.847 208.733C278.559 211.396 285.453 217.821 285.453 217.821C285.453 217.821 288.204 208.811 287.488 206.149C287.079 204.948 286.228 203.947 285.109 203.35C283.989 202.753 282.684 202.603 281.458 202.932C280.232 203.26 279.177 204.042 278.506 205.12C277.836 206.197 277.6 207.489 277.847 208.733Z" fill="black"/>
</g>
<path opacity="0.1" d="M3.70691 134.377C9.13436 157.565 20.6239 177.61 38.7821 187.326C76.518 207.517 161.622 197.104 225.138 185.138C257.231 179.114 286.362 162.47 307.841 137.886L3.70691 134.377Z" fill="black"/>
<path opacity="0.1" d="M336.78 25.229H301.929C301.13 25.229 300.364 24.9118 299.799 24.3471C299.234 23.7824 298.917 23.0166 298.917 22.218C298.917 21.4194 299.234 20.6535 299.799 20.0888C300.364 19.5242 301.13 19.2069 301.929 19.2069H307.954C307.155 19.2069 306.389 18.8897 305.824 18.325C305.259 17.7603 304.942 16.9944 304.942 16.1959C304.942 15.3973 305.259 14.6314 305.824 14.0667C306.389 13.502 307.155 13.1848 307.954 13.1848H303.652C302.853 13.1848 302.087 12.8676 301.522 12.3029C300.957 11.7382 300.64 10.9723 300.64 10.1737C300.64 9.37517 300.957 8.60929 301.522 8.04461C302.087 7.47992 302.853 7.16269 303.652 7.16269H321.842C317.805 5.28761 313.088 3.95318 307.654 3.25315C258.056 -3.11585 240.348 1.09682 234.102 5.44074C226.395 10.7847 217.798 14.7161 208.609 16.6099C178.005 22.9133 120.776 30.5074 68.9053 14.1723C43.1248 6.04702 23.9631 19.7726 12.4797 42.6985H342.829C342.398 36.0357 341.106 29.8855 338.737 24.4978C338.193 24.9685 337.499 25.228 336.78 25.229Z" fill="black"/>
<path opacity="0.1" d="M0.749341 85.9783C-0.588604 99.4648 -0.1334 113.069 2.10308 126.436L308.079 137.621C316.596 127.827 323.748 116.926 329.339 105.213L0.749341 85.9783ZM121.767 114.839H115.742C116.541 114.839 117.307 115.156 117.872 115.721C118.437 116.285 118.754 117.051 118.754 117.85C118.754 118.648 118.437 119.414 117.872 119.979C117.307 120.544 116.541 120.861 115.742 120.861H80.8918C80.0929 120.861 79.3268 120.544 78.7618 119.979C78.1969 119.414 77.8796 118.648 77.8796 117.85C77.8796 117.051 78.1969 116.285 78.7618 115.721C79.3268 115.156 80.0929 114.839 80.8918 114.839H86.9165C86.1175 114.839 85.3513 114.522 84.7864 113.957C84.2215 113.392 83.9041 112.626 83.9041 111.828C83.9041 111.029 84.2215 110.263 84.7864 109.699C85.3513 109.134 86.1175 108.817 86.9165 108.817H82.6145C81.8156 108.817 81.0494 108.499 80.4845 107.935C79.9196 107.37 79.6022 106.604 79.6022 105.806C79.6022 105.007 79.9196 104.241 80.4845 103.676C81.0494 103.112 81.8156 102.795 82.6145 102.795H117.465C118.264 102.795 119.03 103.112 119.595 103.676C120.16 104.241 120.477 105.007 120.477 105.806C120.477 106.604 120.16 107.37 119.595 107.935C119.03 108.499 118.264 108.817 117.465 108.817H121.767C122.565 108.817 123.332 109.134 123.897 109.699C124.462 110.263 124.779 111.029 124.779 111.828C124.779 112.626 124.462 113.392 123.897 113.957C123.332 114.522 122.565 114.839 121.767 114.839Z" fill="black"/>
<path opacity="0.1" d="M342.845 42.9077L8.79055 51.033C4.72934 61.4741 2.05 73.2777 0.799438 85.5126H336.992C339.187 78.3255 340.811 70.9763 341.847 63.5335C342.848 56.3426 343.248 49.3861 342.845 42.9077ZM68.6176 69.5244H62.593C63.3919 69.5244 64.1581 69.8417 64.723 70.4063C65.2879 70.971 65.6053 71.7369 65.6053 72.5355C65.6053 73.3341 65.2879 74.0999 64.723 74.6646C64.1581 75.2293 63.3919 75.5465 62.593 75.5465H27.7429C26.944 75.5465 26.1778 75.2293 25.6129 74.6646C25.0479 74.0999 24.7306 73.3341 24.7306 72.5355C24.7306 71.7369 25.0479 70.971 25.6129 70.4063C26.1778 69.8417 26.944 69.5244 27.7429 69.5244H33.7675C32.9686 69.5244 32.2024 69.2072 31.6375 68.6425C31.0725 68.0778 30.7552 67.3119 30.7552 66.5134C30.7552 65.7148 31.0725 64.9489 31.6375 64.3842C32.2024 63.8195 32.9686 63.5023 33.7675 63.5023H29.4655C28.6666 63.5023 27.9004 63.1851 27.3355 62.6204C26.7706 62.0557 26.4532 61.2898 26.4532 60.4912C26.4532 59.6927 26.7706 58.9268 27.3355 58.3621C27.9004 57.7974 28.6666 57.4802 29.4655 57.4802H64.3157C65.1146 57.4802 65.8808 57.7974 66.4457 58.3621C67.0106 58.9268 67.328 59.6927 67.328 60.4912C67.328 61.2898 67.0106 62.0557 66.4457 62.6204C65.8808 63.1851 65.1146 63.5023 64.3157 63.5023H68.6176C69.4165 63.5023 70.1827 63.8195 70.7476 64.3842C71.3125 64.9489 71.6299 65.7148 71.6299 66.5134C71.6299 67.3119 71.3125 68.0778 70.7476 68.6425C70.1827 69.2072 69.4165 69.5244 68.6176 69.5244Z" fill="black"/>
<path d="M293.472 253.548C293.472 253.548 279.541 177.17 252.976 164.775C230.466 154.266 206.123 147.181 199.202 145.259C198.168 143.595 196.973 142.036 195.634 140.606C186.174 130.733 180.49 130.918 179.571 131.04C179.135 129.082 178.821 127.099 178.633 125.102C178.605 124.789 178.577 124.499 178.552 124.189L178.633 124.149C178.577 123.558 178.527 122.949 178.483 122.32C182.345 120.26 185.9 117.672 189.047 114.63C189.088 114.764 189.122 114.898 189.166 115.036C195.983 109.275 202.66 103.358 209.197 97.2851C211.073 95.5319 213.042 93.6287 213.68 91.1567C213.884 90.306 213.963 89.4301 213.914 88.5566C213.999 86.6815 213.555 84.7658 213.48 82.8657C213.48 82.5532 213.514 82.2626 213.555 81.9657C213.993 78.8562 216.156 76.303 217.932 73.6935C222.368 67.0991 224.684 59.3074 224.569 51.3613C224.618 47.5539 224.091 43.761 223.006 40.1109C221.621 35.4794 218.739 30.6136 213.939 29.6011C212.082 29.2104 210.153 29.4542 208.259 29.3323C200.415 28.8323 194.543 22.457 188.287 17.785C180.652 12.1104 171.623 8.60725 162.157 7.64707C159.202 7.33455 156.151 7.31268 153.34 8.25022C147.028 10.3503 143.195 16.8349 137.114 19.5007C132.618 21.482 127.422 21.1601 122.733 22.6477C115.751 24.8665 109.827 32.0231 109.67 39.3765C109.67 39.6484 109.67 39.9202 109.67 40.1921C109.67 40.239 109.67 40.2859 109.67 40.3296C109.592 44.0454 110.921 47.8299 111.027 51.6332C111.027 51.977 111.033 52.3218 111.043 52.6676C111.009 56.7741 110.518 60.893 109.02 64.7525C108.214 66.8307 107.176 69.2371 107.344 71.3153C107.251 72.5872 107.498 73.781 108.382 74.7529L109.892 73.4216C109.386 76.1615 109.132 78.9419 109.133 81.7282C109.133 95.7725 115.523 108.348 125.603 116.811C125.661 117.746 125.717 118.748 125.771 119.817C126.009 124.449 126.197 130.258 126.144 136.59L111.399 150.137L73.4947 167.325C73.4947 167.325 38.8291 174.644 46.2949 223.325L49.859 253.551H81.5077L81.4358 253.71H128.41L128.438 253.551H240.201L240.179 253.71H244.556V253.551L293.472 253.548ZM179.849 131.815C180.807 133.796 181.561 135.869 182.1 138.002C180.994 135.949 180.176 133.754 179.671 131.477L179.718 131.561L179.849 131.815ZM126.131 138.065C126.131 138.661 126.121 139.262 126.1 139.868L126.025 139.974C126.02 139.331 126.055 138.688 126.131 138.049V138.065Z" fill="url(#paint0_linear)"/>
<path d="M192.214 145.731L185.961 205.421L152.509 216.046C152.509 216.046 109.051 207.921 120.307 184.482C128.313 167.81 128.091 138.015 127.297 122.202C126.985 115.783 126.559 111.667 126.559 111.667C126.559 111.667 183.46 61.9775 178.77 106.667C177.864 115.32 177.811 122.086 178.314 127.374C180.424 149.387 192.214 145.731 192.214 145.731Z" fill="#FDC2CC"/>
<path opacity="0.03" d="M192.214 145.731L185.961 205.421L152.509 216.046C152.509 216.046 109.051 207.921 120.307 184.482C128.313 167.81 128.091 138.015 127.297 122.202C126.985 115.783 126.559 111.667 126.559 111.667C126.559 111.667 183.46 61.9775 178.77 106.667C177.864 115.32 177.811 122.086 178.314 127.374C180.424 149.387 192.214 145.731 192.214 145.731Z" fill="black"/>
<path opacity="0.1" d="M178.77 105.729C177.864 114.383 177.811 121.148 178.314 126.436C170.281 130.82 161.109 132.672 152.004 131.749C142.899 130.826 134.286 127.171 127.297 121.264C126.985 114.845 126.559 110.729 126.559 110.729C126.559 110.729 183.46 61.0397 178.77 105.729Z" fill="black"/>
<path d="M156.573 130.108C181.61 130.108 201.906 109.82 201.906 84.7938C201.906 59.7674 181.61 39.4795 156.573 39.4795C131.536 39.4795 111.24 59.7674 111.24 84.7938C111.24 109.82 131.536 130.108 156.573 130.108Z" fill="#FDC2CC"/>
<path opacity="0.03" d="M156.573 130.108C181.61 130.108 201.906 109.82 201.906 84.7938C201.906 59.7674 181.61 39.4795 156.573 39.4795C131.536 39.4795 111.24 59.7674 111.24 84.7938C111.24 109.82 131.536 130.108 156.573 130.108Z" fill="black"/>
<path opacity="0.1" d="M81.8516 206.046C81.8516 206.046 96.5458 236.047 97.3274 253.704L81.8516 206.046Z" fill="black"/>
<path opacity="0.1" d="M241.924 223.237L237.703 253.707H241.924V223.237Z" fill="black"/>
<path opacity="0.1" d="M85.1344 253.704L108.426 200.733C108.426 200.733 114.992 188.232 116.555 175.732C118.118 163.231 126.559 143.543 126.559 143.543C126.559 143.543 147.506 116.98 157.198 120.73C166.89 124.48 148.757 138.543 148.757 138.543C148.757 138.543 175.331 148.856 157.198 179.482C139.065 210.108 138.752 204.483 138.752 204.483L129.842 253.704H85.1344Z" fill="black"/>
<path d="M84.5091 253.704L107.801 200.733C107.801 200.733 114.366 188.232 115.93 175.732C116.924 167.785 120.697 156.931 123.314 150.078C125.022 145.597 127.536 141.467 130.73 137.89C137.502 130.314 149.801 118.098 156.573 120.723C166.265 124.474 148.132 138.537 148.132 138.537C148.132 138.537 174.706 148.85 156.573 179.476C138.44 210.102 138.127 204.477 138.127 204.477L129.217 253.698L84.5091 253.704Z" fill="#FDC2CC"/>
<path opacity="0.15" d="M170.486 60.2616C171.004 60.2616 171.423 59.8418 171.423 59.324C171.423 58.8062 171.004 58.3865 170.486 58.3865C169.968 58.3865 169.548 58.8062 169.548 59.324C169.548 59.8418 169.968 60.2616 170.486 60.2616Z" fill="white"/>
<path opacity="0.15" d="M166.108 62.1365C166.626 62.1365 167.046 61.7168 167.046 61.199C167.046 60.6812 166.626 60.2615 166.108 60.2615C165.59 60.2615 165.171 60.6812 165.171 61.199C165.171 61.7168 165.59 62.1365 166.108 62.1365Z" fill="white"/>
<path opacity="0.1" d="M124.368 27.6886C128.892 26.226 133.913 26.5417 138.252 24.5978C144.12 21.9665 147.819 15.5975 153.909 13.5349C156.623 12.6161 159.568 12.6505 162.416 12.9442C171.575 13.897 180.297 17.3418 187.634 22.904C193.671 27.4948 199.336 33.7545 206.905 34.2451C208.734 34.3639 210.594 34.1232 212.386 34.5076C217.025 35.5014 219.805 40.2797 221.14 44.8205C222.684 50.2019 223.046 55.8535 222.201 61.3879C221.356 66.9222 219.324 72.2085 216.244 76.8843C214.53 79.4469 212.442 81.9564 212.02 85.0097C211.607 88.0035 212.883 91.1068 212.139 94.0382C211.513 96.4664 209.638 98.3352 207.812 100.057C201.507 106.018 195.063 111.825 188.481 117.48C185.061 106.617 190.079 94.9194 189.297 83.5596C188.984 79.1344 187.421 74.303 183.516 72.2154C179.862 70.2653 175.191 71.2779 171.492 69.4028C167.365 67.3246 165.671 62.4025 162.551 58.9961C157.236 53.1834 148.01 52.4333 140.578 55.0584C133.147 57.6835 127.072 63.0838 121.194 68.3496L110.511 77.9281C108.426 75.578 110.008 71.9716 111.137 69.034C112.819 64.6307 113.188 59.8836 113.075 55.2085C112.984 51.4583 111.69 47.755 111.765 44.1049C111.915 36.9046 117.63 29.8668 124.368 27.6886Z" fill="black"/>
<path d="M124.368 26.7508C128.892 25.2883 133.913 25.6039 138.252 23.6601C144.12 21.0287 147.819 14.6597 153.909 12.5971C156.623 11.6784 159.568 11.7127 162.416 12.0065C171.575 12.9593 180.297 16.4041 187.634 21.9663C193.671 26.5571 199.336 32.8167 206.905 33.3074C208.734 33.4261 210.594 33.1855 212.386 33.5699C217.025 34.5637 219.805 39.342 221.14 43.8828C222.684 49.2642 223.046 54.9158 222.201 60.4501C221.356 65.9845 219.324 71.2707 216.244 75.9466C214.53 78.5092 212.442 81.0187 212.02 84.0719C211.607 87.0658 212.883 90.169 212.139 93.1004C211.513 95.5286 209.638 97.3975 207.812 99.1194C201.507 105.08 195.063 110.888 188.481 116.542C185.061 105.679 190.079 93.9817 189.297 82.6218C188.984 78.1967 187.421 73.3652 183.516 71.2776C179.862 69.3276 175.191 70.3401 171.492 68.465C167.365 66.3868 165.671 61.4647 162.551 58.0584C157.236 52.2456 148.01 51.4956 140.578 54.1207C133.147 56.7458 127.072 62.146 121.194 67.4119L110.511 76.9904C108.426 74.6403 110.008 71.0339 111.137 68.0963C112.819 63.693 113.188 58.9459 113.075 54.2707C112.984 50.5206 111.69 46.8173 111.765 43.1671C111.915 35.9668 117.63 28.9291 124.368 26.7508Z" fill="#865A61"/>
<defs>
<linearGradient id="paint0_linear" x1="169.354" y1="253.704" x2="169.354" y2="7.43768" gradientUnits="userSpaceOnUse">
<stop stop-color="white" stop-opacity="0.25"/>
<stop offset="0.54" stop-color="white" stop-opacity="0.12"/>
<stop offset="1" stop-color="white" stop-opacity="0"/>
</linearGradient>
</defs>
</svg>
