<svg width="253" height="301" viewBox="0 0 253 301" fill="none" xmlns="http://www.w3.org/2000/svg">
<path d="M209.847 299.555C211.7 279.604 216.816 260.092 224.993 241.799C227.272 236.708 229.78 231.729 232.518 226.862C233.221 225.61 231.296 224.485 230.593 225.737C220.637 243.463 213.663 262.704 209.948 282.692C208.915 288.273 208.138 293.895 207.618 299.555C207.486 300.983 209.716 300.974 209.847 299.555H209.847Z" fill="#E6E6E6"/>
<path d="M237.916 230.437C245.713 230.437 252.033 224.117 252.033 216.32C252.033 208.524 245.713 202.203 237.916 202.203C230.12 202.203 223.799 208.524 223.799 216.32C223.799 224.117 230.12 230.437 237.916 230.437Z" fill="#E6E6E6"/>
<path d="M211.291 299.93C212.493 286.987 215.812 274.328 221.117 262.461C222.595 259.158 224.222 255.928 225.998 252.771C226.088 252.606 226.109 252.413 226.058 252.232C226.008 252.051 225.889 251.897 225.727 251.803C225.565 251.708 225.372 251.68 225.19 251.724C225.008 251.769 224.85 251.882 224.75 252.041C218.291 263.54 213.766 276.023 211.357 288.99C210.686 292.611 210.182 296.258 209.845 299.93C209.759 300.856 211.206 300.85 211.291 299.93Z" fill="#E6E6E6"/>
<path d="M229.501 255.09C234.559 255.09 238.659 250.989 238.659 245.931C238.659 240.874 234.559 236.773 229.501 236.773C224.443 236.773 220.343 240.874 220.343 245.931C220.343 250.989 224.443 255.09 229.501 255.09Z" fill="#E6E6E6"/>
<path d="M209.466 299.065C202.453 288.12 197.284 276.098 194.168 263.478C193.302 259.965 192.598 256.417 192.057 252.835C192.026 252.65 191.924 252.485 191.772 252.374C191.621 252.262 191.433 252.214 191.247 252.239C191.061 252.264 190.892 252.36 190.776 252.507C190.66 252.655 190.605 252.841 190.623 253.028C192.604 266.067 196.714 278.693 202.789 290.399C204.488 293.667 206.333 296.852 208.326 299.955C208.828 300.738 209.965 299.843 209.466 299.065V299.065Z" fill="#E6E6E6"/>
<path d="M190.612 254.447C195.67 254.447 199.77 250.347 199.77 245.289C199.77 240.231 195.67 236.13 190.612 236.13C185.554 236.13 181.454 240.231 181.454 245.289C181.454 250.347 185.554 254.447 190.612 254.447Z" fill="#E6E6E6"/>
<path d="M136.201 167.006C136.802 166.095 137.196 165.062 137.356 163.981C137.515 162.901 137.435 161.799 137.122 160.752C136.809 159.706 136.271 158.74 135.544 157.925C134.818 157.109 133.922 156.462 132.918 156.03L134.843 129.549L122.805 136.29L122.823 160.403C122.209 162.137 122.252 164.035 122.944 165.739C123.636 167.442 124.93 168.833 126.579 169.647C128.228 170.461 130.118 170.642 131.891 170.155C133.665 169.668 135.198 168.548 136.201 167.006Z" fill="#FFB8B8"/>
<path d="M133.206 64.0675L136.497 148.336L123.124 147.593L120.152 59.1772L122.972 57.8499C124.045 57.345 125.226 57.1136 126.411 57.1765C127.595 57.2394 128.745 57.5946 129.759 58.2103C130.772 58.8261 131.617 59.6833 132.219 60.7053C132.82 61.7273 133.159 62.8824 133.206 64.0675Z" fill="#6C63FF"/>
<path d="M91.8451 291.614H82.7367L78.4028 256.479H91.8465L91.8451 291.614Z" fill="#FFB8B8"/>
<path d="M76.2299 289.011H93.7971V300.072H65.1691C65.1691 298.619 65.4552 297.181 66.011 295.839C66.5669 294.497 67.3816 293.278 68.4087 292.25C69.4358 291.223 70.6551 290.409 71.9971 289.853C73.3391 289.297 74.7774 289.011 76.2299 289.011Z" fill="#2F2E41"/>
<path d="M167.633 280.728L159.367 284.554L140.672 254.492L152.873 248.844L167.633 280.728Z" fill="#FFB8B8"/>
<path d="M152.369 284.926L168.311 277.546L172.958 287.583L146.978 299.61C146.368 298.292 146.023 296.866 145.964 295.415C145.905 293.964 146.132 292.515 146.632 291.151C147.133 289.788 147.897 288.536 148.882 287.468C149.866 286.4 151.051 285.536 152.369 284.926Z" fill="#2F2E41"/>
<path d="M70.2168 176.95L79.6111 284.155L92.2419 282.669L101.577 184.743L153.167 278.211L166.541 274.496C166.541 274.496 123.495 145.736 120.152 134.962C116.487 123.152 87.4601 118.616 87.4601 118.616L86.3456 117.502C73.8732 134.292 68.8774 156.077 70.2168 176.95Z" fill="#2F2E41"/>
<path d="M120.262 48.5491C130.341 48.5491 138.511 40.3789 138.511 30.3004C138.511 20.222 130.341 12.0518 120.262 12.0518C110.184 12.0518 102.014 20.222 102.014 30.3004C102.014 40.3789 110.184 48.5491 120.262 48.5491Z" fill="#FFB8B8"/>
<path d="M133.106 58.2856L119.037 131.619C119.037 131.619 99.7639 127.77 92.8985 123.134C90.1794 121.292 87.7124 119.39 85.6322 117.665C83.2921 115.744 81.0504 113.706 78.9155 111.558C78.9155 111.558 83.8491 87.3294 85.6097 80.8431C87.6546 73.3297 94.6693 64.5782 100.133 58.6145C102.114 56.454 104.645 54.8732 107.456 54.0412C110.266 53.2093 113.25 53.1577 116.088 53.8919L133.106 58.2856Z" fill="#6C63FF"/>
<path opacity="0.2" d="M92.8986 123.134C90.1795 121.291 87.7125 119.389 85.6323 117.665C86.3826 106.565 102.736 83.3245 109.363 83.3245C109.363 83.3245 110.931 119.144 92.8986 123.134Z" fill="black"/>
<path d="M59.2381 152.287C60.265 151.915 61.1977 151.322 61.9706 150.55C62.7435 149.778 63.3378 148.847 63.7116 147.82C64.0854 146.794 64.2296 145.698 64.1341 144.61C64.0386 143.522 63.7057 142.468 63.1589 141.523L80.5144 121.43L66.8326 119.649L52.4491 139.002C50.9216 140.026 49.8228 141.575 49.3608 143.355C48.8989 145.135 49.106 147.023 49.9428 148.66C50.7797 150.298 52.1881 151.572 53.9013 152.24C55.6145 152.908 57.5134 152.925 59.2381 152.287Z" fill="#FFB8B8"/>
<path d="M107.76 54.7378C107.004 54.7533 106.251 54.8395 105.512 54.9952C104.014 55.3376 102.625 56.0462 101.468 57.0576C100.312 58.0691 99.4243 59.3517 98.8856 60.7905L77.4296 105.614L54.3968 130.133L65.9132 139.421L102.32 106.729L116.865 67.141C117.329 65.7114 117.447 64.1918 117.208 62.7077C116.969 61.2236 116.381 59.8177 115.491 58.6059C114.602 57.3942 113.437 56.4114 112.092 55.7388C110.748 55.0662 109.263 54.7231 107.76 54.7378Z" fill="#6C63FF"/>
<path d="M121.343 48.3811C123.94 44.4936 125.99 39.103 123.13 35.4041C120.307 31.7529 114.74 32.2908 110.417 30.6752C104.396 28.4249 100.904 21.3511 101.993 15.0161C103.082 8.6811 108.167 3.42958 114.226 1.28083C120.284 -0.867925 127.115 -0.169106 133.048 2.30532C140.351 5.35136 146.616 11.2437 149.243 18.7078C151.87 26.1719 150.465 35.134 145.016 40.871C139.173 47.0218 130.003 48.661 121.52 48.5615" fill="#2F2E41"/>
<path d="M149.999 26.8643C150.742 31.0183 155.299 33.3777 159.488 33.8963C163.676 34.4148 168.008 33.7499 172.085 34.8391C179.273 36.7593 184.014 43.6719 186.623 50.6392C189.233 57.6065 190.39 65.1263 193.78 71.7489C197.17 78.3714 203.744 84.2098 211.158 83.5904C209.706 87.2472 207.16 90.3667 203.87 92.5234C200.579 94.6802 196.703 95.7691 192.77 95.6415C188.838 95.514 185.04 94.1763 181.896 91.8109C178.752 89.4455 176.414 86.1676 175.201 82.4245C172.478 74.0161 175.604 63.9887 170.841 56.5434C168.206 52.4235 163.654 50.0001 159.266 47.8408C154.877 45.6815 150.271 43.4651 147.329 39.5582C144.387 35.6513 143.799 29.4811 147.425 26.1986" fill="#2F2E41"/>
<path d="M238.864 300.462H0.887202C0.77081 300.463 0.655533 300.44 0.547903 300.396C0.440274 300.352 0.342406 300.286 0.259984 300.204C0.177563 300.122 0.112189 300.024 0.0675696 299.917C0.0229501 299.809 0 299.694 0 299.578C0 299.461 0.0229501 299.346 0.0675696 299.239C0.112189 299.131 0.177563 299.034 0.259984 298.951C0.342406 298.869 0.440274 298.804 0.547903 298.76C0.655533 298.715 0.77081 298.693 0.887202 298.693H238.864C238.98 298.693 239.095 298.715 239.203 298.76C239.311 298.804 239.408 298.869 239.491 298.951C239.573 299.034 239.639 299.131 239.683 299.239C239.728 299.346 239.751 299.461 239.751 299.578C239.751 299.694 239.728 299.809 239.683 299.917C239.639 300.024 239.573 300.122 239.491 300.204C239.408 300.286 239.311 300.352 239.203 300.396C239.095 300.44 238.98 300.463 238.864 300.462Z" fill="#3F3D56"/>
</svg>
