<svg width="414" height="295" viewBox="0 0 414 295" fill="none" xmlns="http://www.w3.org/2000/svg">
<path opacity="0.1" d="M4.47119 146.798C11.0259 172.13 24.89 194.028 46.7993 204.643C92.3462 226.703 195.066 215.326 271.73 202.265C311.387 195.511 346.243 176.869 371.564 150.635L4.47119 146.798Z" fill="#6C63FF"/>
<path opacity="0.1" d="M406.492 27.5567H364.428C362.432 27.5567 360.794 26.0775 360.794 24.27C360.794 22.4624 362.432 20.9794 364.428 20.9794H371.703C369.703 20.9794 368.07 19.5002 368.07 17.6889C368.07 15.8775 369.703 14.4021 371.703 14.4021H366.511C364.511 14.4021 362.873 12.9228 362.873 11.1115C362.873 9.30022 364.511 7.82476 366.511 7.82476H388.466C383.594 5.77571 377.9 4.31911 371.337 3.55308C311.47 -3.4016 290.096 1.19837 282.557 5.92665C273.159 11.8936 262.72 16.0339 251.787 18.1304C214.851 25.0247 145.776 33.319 83.169 15.4889C52.0522 6.60967 28.924 21.5945 15.0637 46.6434H413.798C413.277 39.3642 411.718 32.6397 408.858 26.7567C408.181 27.2798 407.348 27.5613 406.492 27.5567Z" fill="#6C63FF"/>
<path opacity="0.1" d="M0.905249 93.9225C-0.71042 108.655 -0.161206 123.545 2.53543 138.118L371.847 150.341C382.013 139.797 390.65 127.88 397.507 114.937L0.905249 93.9225ZM146.972 125.451H139.701C141.701 125.451 143.339 126.934 143.339 128.741C143.339 130.549 141.701 132.028 139.701 132.028H97.6368C95.6406 132.028 94.0029 130.549 94.0029 128.741C94.0029 126.934 95.6406 125.451 97.6368 125.451H104.912C102.912 125.451 101.278 123.971 101.278 122.164C101.278 120.356 102.912 118.873 104.912 118.873H99.7161C97.7161 118.873 96.0784 117.394 96.0784 115.587C96.0784 113.779 97.7161 112.296 99.7161 112.296H141.78C143.78 112.296 145.414 113.775 145.414 115.587C145.414 117.398 143.78 118.873 141.78 118.873H146.972C148.972 118.873 150.606 120.353 150.606 122.164C150.606 123.975 148.972 125.451 146.972 125.451Z" fill="#6C63FF"/>
<path opacity="0.1" d="M413.813 46.8699L10.6148 55.7378C5.70917 67.1452 2.45636 80.0433 0.958252 93.4093H406.749C409.39 85.5894 411.349 77.5557 412.605 69.3981C413.817 61.5453 414.3 53.9491 413.813 46.8699ZM82.822 75.9452H75.5503C77.5503 75.9452 79.188 77.4282 79.188 79.2358C79.188 81.0433 77.5503 82.5263 75.5503 82.5263H33.4864C31.4902 82.5263 29.8524 81.0433 29.8524 79.2358C29.8524 77.4282 31.4902 75.9452 33.4864 75.9452H40.7618C38.7618 75.9452 37.1279 74.466 37.1279 72.6584C37.1279 70.8509 38.7618 69.3679 40.7618 69.3679H35.5656C33.5656 69.3679 31.9279 67.8886 31.9279 66.0811C31.9279 64.2736 33.5656 62.7905 35.5656 62.7905H77.6296C79.6296 62.7905 81.2635 64.2698 81.2635 66.0811C81.2635 67.8924 79.6296 69.3679 77.6296 69.3679H82.822C84.822 69.3679 86.4559 70.8509 86.4559 72.6584C86.4559 74.466 84.822 75.9452 82.822 75.9452Z" fill="#6C63FF"/>
<path opacity="0.1" d="M205.693 294.744C298.847 294.744 374.364 287.797 374.364 279.227C374.364 270.657 298.847 263.71 205.693 263.71C112.539 263.71 37.0222 270.657 37.0222 279.227C37.0222 287.797 112.539 294.744 205.693 294.744Z" fill="#6C63FF"/>
<path d="M195.848 288.031C260.142 288.031 312.262 235.91 312.262 171.616C312.262 107.322 260.142 55.2019 195.848 55.2019C131.554 55.2019 79.4331 107.322 79.4331 171.616C79.4331 235.91 131.554 288.031 195.848 288.031Z" fill="#6C63FF"/>
<path d="M256.931 230.118C256.931 248.495 228.04 231.688 197.067 231.688C166.093 231.688 134.765 247.801 134.765 229.424C134.765 218.944 144.75 204.371 159.074 193.786C169.867 185.809 183.12 180.096 196.433 180.096C210.123 180.096 223.535 186.28 234.233 194.771C247.734 205.477 256.931 219.861 256.931 230.118Z" fill="#444053"/>
<path d="M234.229 194.764C217.765 192.284 187.988 189.262 159.074 193.779C169.867 185.801 183.12 180.088 196.433 180.088C210.12 180.088 223.531 186.273 234.229 194.764Z" fill="#F6F8FB"/>
<path opacity="0.05" d="M134.765 89.4395C134.765 89.4395 99.6971 111.858 99.9839 146.926C100.271 181.994 134.765 89.4395 134.765 89.4395Z" fill="black"/>
<path d="M312.217 26.1227C312.217 26.1227 280.444 24.2095 284.191 46.4735C284.191 46.4735 283.436 50.4056 287.013 52.1943C287.013 52.1943 287.07 50.5452 290.27 51.1037C291.41 51.2945 292.569 51.3502 293.723 51.2697C295.281 51.1638 296.763 50.5516 297.942 49.5264C297.942 49.5264 306.874 45.8396 310.349 31.2397C310.349 31.2397 312.919 28.0548 312.817 27.2397L307.455 29.5265C307.455 29.5265 309.285 33.3944 307.832 36.6094C307.832 36.6094 307.659 29.6698 306.628 29.817C306.421 29.851 303.843 31.1566 303.843 31.1566C303.843 31.1566 306.994 37.8962 304.598 42.7905C304.598 42.7905 305.5 34.4887 302.84 31.6434L299.066 33.8472C299.066 33.8472 302.749 40.8056 300.251 46.4849C300.251 46.4849 300.892 37.7755 298.274 34.383L294.851 37.0509C294.851 37.0509 298.311 43.9113 296.202 48.6207C296.202 48.6207 295.926 38.4811 294.111 37.7151C294.111 37.7151 291.119 40.3566 290.662 41.4396C290.662 41.4396 293.032 46.4169 291.564 49.0433C291.564 49.0433 290.662 42.2887 289.923 42.2509C289.923 42.2509 286.942 46.7264 286.628 49.798C286.628 49.798 286.76 45.232 289.198 41.8245C289.198 41.8245 286.315 42.3188 284.636 44.1905C284.636 44.1905 285.1 41.0245 289.919 40.749C289.919 40.749 292.383 37.3528 293.043 37.1491C293.043 37.1491 288.232 36.7453 285.315 38.0396C285.315 38.0396 287.881 35.0547 293.923 36.4094L297.319 33.6547C297.319 33.6547 290.987 32.7868 288.3 33.7453C288.3 33.7453 291.391 31.1038 298.228 33.0283L301.908 30.8283C301.908 30.8283 296.508 29.6661 293.289 30.0736C293.289 30.0736 296.685 28.2434 302.983 30.2283L305.625 29.0472C305.625 29.0472 301.666 28.2699 300.508 28.1491C299.349 28.0283 299.289 27.7038 299.289 27.7038C301.803 27.2951 304.381 27.5943 306.734 28.568C306.734 28.568 312.311 26.4736 312.217 26.1227Z" fill="#6C63FF"/>
<path d="M279.628 16.2247C279.628 16.2247 265.289 15.3568 266.964 25.4171C266.964 25.4171 266.628 27.1945 268.24 28.002C268.24 28.002 268.262 27.2473 269.711 27.5115C270.226 27.5962 270.749 27.6215 271.27 27.5869C271.975 27.5366 272.644 27.26 273.179 26.7983C273.179 26.7983 277.213 25.1303 278.783 18.5342C278.783 18.5342 279.945 17.0964 279.915 16.7266L277.493 17.7606C277.493 17.7606 278.323 19.5077 277.67 20.9606C277.67 20.9606 277.591 17.8247 277.127 17.9002C277.032 17.9002 275.866 18.504 275.866 18.504C275.866 18.504 277.293 21.5492 276.217 23.7605C276.217 23.7605 276.625 20.0096 275.425 18.7228L273.719 19.719C273.719 19.719 275.383 22.8662 274.255 25.4322C274.255 25.4322 274.542 21.4964 273.36 19.9643L271.813 21.1681C271.813 21.1681 273.376 24.2662 272.425 26.3945C272.425 26.3945 272.3 21.8134 271.477 21.4662C271.477 21.4662 270.127 22.6587 269.919 23.1492C269.919 23.1492 270.991 25.4134 270.327 26.5869C270.327 26.5869 269.919 23.5341 269.572 23.5228C269.572 23.5228 268.225 25.5417 268.085 26.919C268.15 25.6372 268.549 24.3948 269.244 23.3153C268.467 23.4622 267.751 23.8334 267.183 24.3832C267.183 24.3832 267.391 22.953 269.576 22.8285C269.576 22.8285 270.689 21.2964 270.987 21.2021C270.987 21.2021 268.813 21.0209 267.496 21.6058C267.496 21.6058 268.655 20.2549 271.387 20.8511L272.896 19.6096C272.896 19.6096 270.036 19.2323 268.821 19.6474C268.821 19.6474 270.217 18.4549 273.308 19.3266L274.968 18.3304C274.968 18.3304 272.53 17.8059 271.074 17.9945C271.074 17.9945 272.61 17.1681 275.455 18.0662L276.643 17.5304C276.643 17.5304 274.855 17.1794 274.334 17.1266C273.813 17.0738 273.779 16.9266 273.779 16.9266C274.912 16.7382 276.075 16.8688 277.138 17.304C277.138 17.304 279.67 16.3832 279.628 16.2247Z" fill="#6C63FF"/>
<path d="M382.7 294.721C391.08 294.721 397.873 293.573 397.873 292.155C397.873 290.738 391.08 289.589 382.7 289.589C374.32 289.589 367.526 290.738 367.526 292.155C367.526 293.573 374.32 294.721 382.7 294.721Z" fill="#6C63FF"/>
<path d="M388.971 287.963C389.664 287.398 390.169 286.636 390.42 285.778C390.605 284.914 390.236 283.872 389.409 283.555C388.481 283.201 387.488 283.846 386.737 284.495C385.987 285.144 385.122 285.884 384.137 285.748C384.644 285.289 385.023 284.707 385.237 284.058C385.451 283.409 385.494 282.716 385.36 282.046C385.317 281.768 385.2 281.508 385.021 281.291C384.504 280.74 383.571 280.974 382.953 281.408C380.99 282.789 380.443 285.454 380.432 287.854C380.236 286.989 380.402 286.088 380.398 285.212C380.394 284.337 380.149 283.325 379.402 282.861C378.938 282.613 378.418 282.491 377.892 282.506C377.009 282.472 376.028 282.559 375.424 283.204C374.67 284.008 374.87 285.352 375.522 286.223C376.175 287.095 377.164 287.661 378.073 288.269C378.805 288.704 379.43 289.298 379.9 290.008C379.955 290.108 380 290.213 380.036 290.321H385.564C386.801 289.693 387.947 288.899 388.971 287.963Z" fill="#6C63FF"/>
<path d="M22.3958 256.322C22.3958 256.322 24.4675 259.031 21.4373 263.114C18.4071 267.197 15.909 270.661 16.909 273.212C16.909 273.212 21.4788 265.612 25.2109 265.503C28.9429 265.393 26.4863 260.891 22.3958 256.322Z" fill="#6C63FF"/>
<path opacity="0.1" d="M22.3958 256.322C22.5757 256.584 22.7179 256.869 22.8184 257.171C26.4486 261.435 28.3807 265.416 24.8939 265.514C21.6411 265.608 17.7241 271.42 16.8071 272.888C16.8392 273.001 16.877 273.114 16.9203 273.223C16.9203 273.223 21.4901 265.623 25.2222 265.514C28.9542 265.405 26.4863 260.891 22.3958 256.322Z" fill="black"/>
<path d="M26.2485 259.775C26.2485 260.729 26.1391 261.503 26.007 261.503C25.8749 261.503 25.7693 260.748 25.7693 259.775C25.7693 258.801 25.9014 259.269 26.0372 259.269C26.1731 259.269 26.2485 258.82 26.2485 259.775Z" fill="#FFD037"/>
<path d="M27.5541 260.914C26.7164 261.371 25.9881 261.646 25.9239 261.529C25.8598 261.412 26.49 260.952 27.3277 260.495C28.1654 260.039 27.8334 260.371 27.8975 260.495C27.9617 260.62 28.4069 260.458 27.5541 260.914Z" fill="#FFD037"/>
<path d="M11.4448 256.322C11.4448 256.322 9.37308 259.031 12.3995 263.114C15.4259 267.197 17.9278 270.661 16.9278 273.212C16.9278 273.212 12.3542 265.612 8.62591 265.503C4.89763 265.393 7.35045 260.891 11.4448 256.322Z" fill="#6C63FF"/>
<path opacity="0.1" d="M11.4449 256.322C11.2633 256.583 11.1209 256.869 11.0222 257.171C7.39206 261.435 5.45622 265.416 8.94677 265.514C12.1958 265.608 16.1165 271.42 17.0297 272.888C16.999 273.001 16.9624 273.113 16.9203 273.223C16.9203 273.223 12.3467 265.623 8.61846 265.514C4.89018 265.405 7.35055 260.891 11.4449 256.322Z" fill="black"/>
<path d="M7.59204 259.775C7.59204 260.729 7.6977 261.503 7.82978 261.503C7.96185 261.503 8.06751 260.748 8.06751 259.775C8.06751 258.801 7.93544 259.269 7.80336 259.269C7.67129 259.269 7.59204 258.82 7.59204 259.775Z" fill="#FFD037"/>
<path d="M6.26758 260.914C7.10532 261.371 7.83739 261.646 7.90154 261.529C7.96569 261.412 7.3355 260.952 6.49777 260.495C5.66004 260.039 5.98834 260.371 5.92796 260.495C5.86759 260.62 5.42985 260.458 6.26758 260.914Z" fill="#FFD037"/>
<path d="M8.25244 272.869C8.25244 272.869 14.0486 272.691 15.7996 271.446C17.5505 270.201 24.7165 268.718 25.1505 270.691C25.5844 272.665 33.8599 280.616 27.3165 280.669C20.7731 280.721 12.1128 279.646 10.3694 278.586C8.62602 277.525 8.25244 272.869 8.25244 272.869Z" fill="#A8A8A8"/>
<path opacity="0.2" d="M27.4259 279.993C20.8826 280.046 12.2222 278.971 10.4788 277.91C9.15055 277.103 8.62225 274.201 8.44489 272.861H8.25244C8.25244 272.861 8.6298 277.537 10.3619 278.597C12.0939 279.657 20.7656 280.733 27.3089 280.68C29.1957 280.68 29.8486 279.989 29.8146 278.997C29.5504 279.605 28.8335 279.982 27.4259 279.993Z" fill="black"/>
<path d="M154.459 156.352C156.674 156.228 167.101 155.443 173.723 151.666C174.787 151.04 175.988 150.686 177.221 150.635C179.327 150.575 181.75 151.454 180.199 156.375C177.686 164.424 163.093 173.481 154.037 172.979C145.327 172.496 134.995 168.986 128.173 156.647C127.519 155.46 127.197 154.118 127.24 152.764C127.32 150.273 128.225 147.152 132.901 150.632C139.218 155.33 151.203 156.22 153.606 156.352C153.89 156.368 154.175 156.368 154.459 156.352Z" fill="#444053"/>
<path d="M238.232 156.352C240.447 156.228 250.874 155.443 257.496 151.666C258.56 151.04 259.762 150.686 260.995 150.635C263.1 150.575 265.523 151.454 263.972 156.375C261.459 164.424 246.866 173.481 237.81 172.979C229.1 172.496 218.768 168.986 211.946 156.647C211.292 155.46 210.97 154.118 211.014 152.764C211.093 150.273 211.999 147.152 216.674 150.632C222.991 155.33 234.976 156.22 237.38 156.352C237.664 156.368 237.948 156.368 238.232 156.352Z" fill="#444053"/>
</svg>
