<svg width="214" height="277" viewBox="0 0 214 277" fill="none" xmlns="http://www.w3.org/2000/svg">
<g clip-path="url(#clip0)">
<path d="M63.1152 103.96L3.38204 91.109L2.60576 90.9424C2.21044 90.8568 1.79892 90.8841 1.41851 91.0214C1.0381 91.1586 0.704258 91.4002 0.455373 91.7182C0.206488 92.0363 0.0526604 92.418 0.0115921 92.8193C-0.0294763 93.2207 0.0438853 93.6255 0.223223 93.9871L23.9397 142.021C24.0932 142.329 24.3188 142.597 24.5975 142.8C24.8762 143.004 25.1998 143.138 25.5412 143.19C25.8836 143.243 26.2338 143.213 26.5616 143.101C26.8894 142.988 27.1849 142.798 27.4226 142.547L43.8955 125.224C44.0127 125.098 44.1548 124.997 44.313 124.928C44.4711 124.859 44.6418 124.824 44.8144 124.824C45.0489 124.821 45.28 124.881 45.4828 124.999C45.6856 125.116 45.8525 125.286 45.9657 125.491L49.3398 131.716C49.5552 132.131 49.9036 132.462 50.3296 132.657C50.7555 132.851 51.2345 132.898 51.6904 132.79L51.7072 132.786C52.1685 132.689 52.5836 132.439 52.8858 132.078C53.1879 131.717 53.3595 131.265 53.3729 130.795L54.0488 116.427C54.0569 116.248 54.1018 116.072 54.1807 115.911C54.2655 115.751 54.3805 115.61 54.5194 115.494L64.0228 107.714C64.3351 107.458 64.5689 107.12 64.6974 106.738C64.8258 106.355 64.8437 105.945 64.749 105.553C64.6542 105.161 64.4507 104.804 64.1618 104.522C63.8728 104.24 63.5101 104.046 63.1152 103.96H63.1152ZM63.48 107.052L53.9767 114.833C53.8529 114.932 53.7407 115.045 53.6422 115.17L3.27408 92.3879C3.22966 92.3673 3.18332 92.351 3.13572 92.3395C2.94144 92.2895 2.73577 92.3089 2.55428 92.3941C2.37279 92.4794 2.22689 92.6253 2.14181 92.8065C2.05673 92.9877 2.03783 93.1929 2.08837 93.3865C2.13891 93.5801 2.25571 93.7501 2.41858 93.8669L43.8324 124.207C43.6223 124.316 43.4325 124.46 43.2715 124.633L26.7988 141.956C26.6559 142.106 26.4787 142.219 26.2825 142.287C26.0862 142.354 25.8766 142.373 25.6714 142.342C25.4662 142.311 25.2716 142.231 25.104 142.109C24.9365 141.987 24.8009 141.826 24.7089 141.64L0.992454 93.6067C0.886429 93.3897 0.843654 93.1474 0.869011 92.9073C0.894367 92.6672 0.986829 92.439 1.13587 92.2488C1.2849 92.0585 1.48452 91.9139 1.71198 91.8313C1.93944 91.7487 2.18559 91.7314 2.42238 91.7815L3.2171 91.9528L62.9316 104.799C63.1687 104.85 63.3866 104.967 63.5602 105.136C63.7339 105.305 63.8563 105.519 63.9136 105.754C63.9708 105.989 63.9605 106.236 63.8838 106.465C63.8072 106.695 63.6672 106.898 63.48 107.052Z" fill="#6C63FF"/>
<path d="M75.8483 275.312C70.4902 273.869 63.9694 267.866 65.3655 259.615C66.0578 255.523 68.7152 252.874 71.4705 251.161C75.2818 248.792 79.6223 247.899 83.8053 247.674C88.63 247.413 93.4494 248.069 98.2381 248.763C102.966 249.448 107.693 250.061 112.442 250.436C131.023 251.889 149.718 250.505 167.88 246.33C172.363 245.299 176.819 244.088 181.248 242.699C185.444 241.467 189.548 239.938 193.526 238.122C198.791 235.601 207.354 230.695 206.656 221.609C206.286 216.791 203.441 212.944 200.572 210.263C197.102 207.022 193.088 204.889 189.156 202.818C170.866 193.185 152.541 183.666 134.233 174.092C129.96 171.857 125.659 169.682 121.512 167.063C117.63 164.611 113.766 161.763 110.641 157.825C107.912 154.386 105.474 149.768 105.56 144.607C105.631 140.326 107.585 136.694 109.977 133.979C115.899 127.258 124.277 124.532 131.85 123.105C141.257 121.331 150.801 121.341 160.215 119.628C167.816 118.245 175.937 115.576 182.119 109.321C184.734 106.776 186.583 103.553 187.459 100.016C188.248 96.3111 187.864 92.4531 186.361 88.9749C184.686 84.9859 182.015 81.8082 179.206 79.2061C175.98 76.2587 172.321 73.8205 168.355 71.9762C160.006 68.0083 151.227 65.9423 142.675 62.8973C138.481 61.404 134.244 59.7665 130.35 57.2014C127.05 55.0283 123.456 52.0991 121.62 47.7432C117.833 38.7558 126.868 33.3994 131.988 31.3706C135.468 30.0542 139.052 29.0309 142.704 28.3112C143.476 28.1459 143.148 26.609 142.38 26.7735C138.536 27.5208 134.77 28.6177 131.127 30.0504C128.04 31.3297 124.854 33.011 122.429 35.9042C121.325 37.2104 120.509 38.7337 120.033 40.375C119.557 42.0163 119.433 43.739 119.668 45.4313C120.311 49.7436 123.103 53.0662 125.725 55.4729C129.193 58.6555 133.147 60.734 137.156 62.4282C141.378 64.2126 145.69 65.6032 150 66.9673C158.613 69.6929 167.612 72.1219 175.387 77.9219C180.826 81.9793 188.215 89.5865 186.405 99.0158C185.602 103.202 183.163 106.474 180.532 108.881C177.441 111.625 173.877 113.786 170.012 115.26C152.783 122.175 133.821 117.23 117.035 126.623C111.328 129.816 104.396 135.63 104.34 144.779C104.311 149.531 106.221 153.89 108.583 157.335C111.411 161.461 115.074 164.513 118.8 167.063C122.724 169.65 126.798 172.003 131.001 174.108C135.593 176.514 140.185 178.916 144.779 181.314L172.655 195.894L186.506 203.138C190.733 205.349 195.069 207.469 198.912 210.715C202.059 213.372 205.778 217.732 205.456 223.145C205.201 227.444 202.338 230.547 199.721 232.621C196.333 235.307 192.526 237.044 188.739 238.488C184.371 240.153 179.931 241.534 175.482 242.776C166.37 245.316 157.07 247.131 147.669 248.205C138.292 249.282 128.846 249.633 119.414 249.255C114.649 249.064 109.891 248.684 105.141 248.115C100.244 247.527 95.368 246.621 90.4586 246.219C86.018 245.855 81.5345 245.939 77.1614 247.108C73.5099 248.084 69.6522 249.824 66.8804 253.218C64.8374 255.809 63.8143 259.056 64.0037 262.347C64.1914 265.631 65.3655 268.783 67.3733 271.392C69.4128 274.058 72.2784 275.977 75.5244 276.85C76.2898 277.056 76.6172 275.519 75.8484 275.312L75.8483 275.312Z" fill="#E6E6E6"/>
<path d="M214 276.04H74.7847V277H214V276.04Z" fill="#3F3D56"/>
<path d="M202.846 230.812C207.869 230.812 211.941 226.751 211.941 221.742C211.941 216.732 207.869 212.671 202.846 212.671C197.823 212.671 193.751 216.732 193.751 221.742C193.751 226.751 197.823 230.812 202.846 230.812Z" fill="#E6E6E6"/>
<path d="M186.254 102.972C191.277 102.972 195.348 98.9111 195.348 93.9017C195.348 88.8924 191.277 84.8315 186.254 84.8315C181.231 84.8315 177.159 88.8924 177.159 93.9017C177.159 98.9111 181.231 102.972 186.254 102.972Z" fill="#E6E6E6"/>
<path d="M165.692 0.379562L140.44 11.3281C139.324 11.8131 138.447 12.7196 138.001 13.8486C137.555 14.9776 137.577 16.2369 138.061 17.3503L145.902 35.3396C146.388 36.4519 147.297 37.3264 148.429 37.7712C149.561 38.216 150.824 38.1949 151.94 37.7123L177.193 26.7638C178.308 26.2788 179.185 25.3723 179.631 24.2433C180.077 23.1143 180.056 21.855 179.572 20.7416L171.731 2.75231C171.244 1.63999 170.335 0.765492 169.203 0.32067C168.071 -0.124153 166.809 -0.102972 165.692 0.379562ZM166.738 2.77813C166.889 2.71336 167.047 2.66781 167.21 2.64257L158.672 18.7074L141.137 13.9216C141.246 13.845 141.363 13.7797 141.485 13.7266L166.738 2.77813ZM176.147 24.3652L150.895 35.3138C150.416 35.5205 149.875 35.5296 149.39 35.339C148.905 35.1483 148.515 34.7736 148.307 34.2969L140.536 16.4691L158.993 21.5066C159.28 21.585 159.586 21.5634 159.859 21.4455C160.133 21.3275 160.358 21.1202 160.498 20.8576L169.434 4.04276L177.167 21.7843C177.374 22.2614 177.383 22.8012 177.192 23.285C177.001 23.7689 176.625 24.1574 176.147 24.3652Z" fill="#E6E6E6"/>
<path d="M137.368 156.421C150.067 156.421 160.362 146.154 160.362 133.489C160.362 120.824 150.067 110.557 137.368 110.557C124.669 110.557 114.375 120.824 114.375 133.489C114.375 146.154 124.669 156.421 137.368 156.421Z" fill="#6C63FF"/>
<path d="M133.745 276.322H127.404C126.663 276.321 125.954 276.028 125.43 275.505C124.906 274.983 124.612 274.275 124.611 273.537V220.828C124.612 220.089 124.906 219.381 125.43 218.859C125.954 218.337 126.663 218.043 127.404 218.042H133.745C134.485 218.043 135.195 218.337 135.719 218.859C136.242 219.381 136.537 220.089 136.538 220.828V273.537C136.537 274.275 136.242 274.983 135.719 275.505C135.195 276.028 134.485 276.321 133.745 276.322Z" fill="#2F2E41"/>
<path d="M146.287 276.322H139.946C139.206 276.321 138.496 276.028 137.972 275.505C137.449 274.983 137.154 274.275 137.153 273.537V220.828C137.154 220.089 137.449 219.381 137.972 218.859C138.496 218.337 139.206 218.043 139.946 218.042H146.287C147.028 218.043 147.737 218.337 148.261 218.859C148.784 219.381 149.079 220.089 149.08 220.828V273.537C149.079 274.275 148.784 274.983 148.261 275.505C147.737 276.028 147.028 276.321 146.287 276.322Z" fill="#2F2E41"/>
<path d="M172.565 215.316C172.286 215.316 172.009 215.274 171.743 215.192C171.392 215.086 171.065 214.911 170.783 214.678C170.5 214.445 170.266 214.159 170.095 213.835L145.32 167.275C145.148 166.952 145.042 166.599 145.007 166.235C144.972 165.871 145.009 165.503 145.117 165.154C145.224 164.804 145.4 164.479 145.633 164.197C145.867 163.915 146.154 163.681 146.478 163.51L152.079 160.545C152.403 160.374 152.757 160.267 153.122 160.233C153.488 160.198 153.856 160.235 154.207 160.342C154.557 160.449 154.883 160.625 155.166 160.857C155.449 161.09 155.683 161.377 155.855 161.7L180.629 208.259C180.801 208.582 180.908 208.936 180.943 209.3C180.978 209.664 180.94 210.032 180.833 210.381C180.725 210.731 180.55 211.056 180.316 211.338C180.083 211.62 179.796 211.854 179.472 212.025L173.87 214.99C173.469 215.204 173.02 215.316 172.565 215.316Z" fill="#6C63FF"/>
<path d="M120.99 172.4C120.655 172.4 120.323 172.34 120.009 172.222H120.009L70.5678 153.594C70.2248 153.464 69.9108 153.269 69.6436 153.019C69.3765 152.768 69.1614 152.468 69.0108 152.134C68.8601 151.801 68.7769 151.441 68.7657 151.076C68.7545 150.71 68.8157 150.346 68.9457 150.004L71.1824 144.088C71.4464 143.398 71.9737 142.84 72.6489 142.537C73.3241 142.234 74.0923 142.209 74.7854 142.469L124.226 161.093C124.917 161.356 125.476 161.88 125.781 162.553C126.086 163.225 126.111 163.99 125.852 164.682L123.611 170.599C123.409 171.129 123.05 171.584 122.582 171.906C122.114 172.228 121.559 172.4 120.99 172.4Z" fill="#6C63FF"/>
<path d="M151.513 160.405H122.701C121.277 160.405 120.123 161.556 120.123 162.976V224.025C120.123 225.445 121.277 226.596 122.701 226.596H151.513C152.937 226.596 154.091 225.445 154.091 224.025V162.976C154.091 161.556 152.937 160.405 151.513 160.405Z" fill="#2F2E41"/>
<path d="M154.352 111.032C155.703 113.989 156.996 117.562 155.542 120.725C155.008 122.003 154.008 123.031 152.742 123.599C151.244 124.196 149.61 123.855 148.221 123.135C145.297 121.617 143.412 118.797 140.801 116.865C139.613 115.942 138.207 115.337 136.718 115.11C135.002 114.887 133.299 115.29 131.621 115.602C129.837 115.933 127.992 116.108 126.341 115.206C124.887 114.358 123.75 113.063 123.101 111.514C122.761 110.761 121.65 111.414 121.988 112.163C123.392 115.272 126.297 117.391 129.787 117.146C131.633 117.016 133.417 116.422 135.267 116.336C136.954 116.281 138.609 116.808 139.951 117.83C142.818 119.868 144.763 122.998 148.052 124.478C149.603 125.176 151.38 125.467 153.016 124.866C154.427 124.318 155.602 123.297 156.34 121.979C158.498 118.273 157.112 113.988 155.465 110.383C155.121 109.631 154.01 110.284 154.352 111.032Z" fill="#2F2E41"/>
<path d="M139.91 141.146C138.49 141.106 136.722 141.057 135.361 140.065C134.955 139.757 134.622 139.365 134.384 138.915C134.147 138.466 134.011 137.97 133.986 137.463C133.961 137.102 134.02 136.741 134.159 136.407C134.298 136.073 134.512 135.775 134.785 135.538C135.496 134.938 136.534 134.797 137.654 135.126L136.494 126.673L137.346 126.557L138.709 136.493L137.998 136.169C137.175 135.792 136.043 135.599 135.34 136.192C135.167 136.347 135.033 136.539 134.947 136.754C134.861 136.97 134.826 137.202 134.845 137.432C134.865 137.81 134.967 138.179 135.144 138.514C135.321 138.848 135.567 139.141 135.867 139.373C136.927 140.145 138.336 140.245 139.935 140.289L139.91 141.146Z" fill="#2F2E41"/>
<path d="M132.284 127.402H127.656V128.259H132.284V127.402Z" fill="#2F2E41"/>
<path d="M146.892 127.402H142.264V128.259H146.892V127.402Z" fill="#2F2E41"/>
<path d="M120.085 172.021L99.7659 165.842C99.1322 165.649 98.5972 165.221 98.2719 164.645C97.9467 164.069 97.8562 163.391 98.0192 162.75L100.391 153.429C100.485 153.061 100.659 152.718 100.902 152.425C101.144 152.132 101.449 151.896 101.794 151.735C102.138 151.573 102.515 151.49 102.896 151.49C103.276 151.491 103.652 151.576 103.996 151.739L124.15 161.293C124.788 161.535 125.305 162.019 125.586 162.64C125.868 163.261 125.891 163.968 125.651 164.606L123.41 170.523C123.168 171.161 122.682 171.677 122.058 171.958C121.435 172.239 120.725 172.262 120.085 172.021Z" fill="#2F2E41"/>
<path d="M145.685 166.748L154.399 186.069C154.671 186.672 155.165 187.147 155.779 187.396C156.392 187.645 157.079 187.649 157.695 187.407L166.667 183.882C167.021 183.743 167.34 183.527 167.601 183.25C167.862 182.973 168.058 182.642 168.175 182.28C168.292 181.919 168.327 181.536 168.278 181.159C168.229 180.782 168.097 180.421 167.892 180.101L155.842 161.371C155.521 160.769 154.974 160.32 154.32 160.12C153.667 159.92 152.962 159.986 152.357 160.304L146.755 163.269C146.151 163.589 145.699 164.136 145.498 164.788C145.298 165.44 145.365 166.145 145.685 166.748Z" fill="#2F2E41"/>
<path d="M63.1152 103.96L3.38204 91.109L2.60576 90.9424C2.21044 90.8568 1.79892 90.8841 1.41851 91.0214C1.0381 91.1586 0.704258 91.4002 0.455373 91.7182C0.206488 92.0363 0.0526604 92.418 0.0115921 92.8193C-0.0294763 93.2207 0.0438853 93.6255 0.223223 93.9871L23.9397 142.021C24.0932 142.329 24.3188 142.597 24.5975 142.8C24.8762 143.004 25.1998 143.138 25.5412 143.19C25.8836 143.243 26.2338 143.213 26.5616 143.101C26.8894 142.988 27.1849 142.798 27.4226 142.547L43.8955 125.224C44.0127 125.098 44.1548 124.997 44.313 124.928C44.4711 124.859 44.6418 124.824 44.8144 124.824C45.0489 124.821 45.28 124.881 45.4828 124.999C45.6856 125.116 45.8525 125.286 45.9657 125.491L49.3398 131.716C49.5552 132.131 49.9036 132.462 50.3296 132.657C50.7555 132.851 51.2345 132.898 51.6904 132.79L51.7072 132.786C52.1685 132.689 52.5836 132.439 52.8858 132.078C53.1879 131.717 53.3595 131.265 53.3729 130.795L54.0488 116.427C54.0569 116.248 54.1018 116.072 54.1807 115.911C54.2655 115.751 54.3805 115.61 54.5194 115.494L64.0228 107.714C64.3351 107.458 64.5689 107.12 64.6974 106.738C64.8258 106.355 64.8437 105.945 64.749 105.553C64.6542 105.161 64.4507 104.804 64.1618 104.522C63.8728 104.24 63.5101 104.046 63.1152 103.96H63.1152ZM63.48 107.052L53.9767 114.833C53.8529 114.932 53.7407 115.045 53.6422 115.17C53.5534 115.28 53.4767 115.4 53.4134 115.527C53.3472 115.657 53.2949 115.794 53.2576 115.935L53.2585 115.939C53.2192 116.086 53.1965 116.236 53.1909 116.388L52.5152 130.756C52.5095 131.039 52.4076 131.311 52.2262 131.528C52.0449 131.745 51.7948 131.894 51.5172 131.951L51.5088 131.952C51.2353 132.02 50.9468 131.994 50.6902 131.878C50.4336 131.761 50.2239 131.562 50.095 131.312L46.72 125.084C46.5461 124.763 46.293 124.492 45.9847 124.297C45.6765 124.102 45.3233 123.988 44.9586 123.967L44.9545 123.968C44.9054 123.966 44.8565 123.963 44.8086 123.965C44.4683 123.965 44.1333 124.048 43.8324 124.207C43.6223 124.316 43.4325 124.46 43.2716 124.633L26.7988 141.956C26.6559 142.106 26.4788 142.219 26.2825 142.287C26.0862 142.354 25.8766 142.373 25.6714 142.342C25.4662 142.311 25.2716 142.231 25.1041 142.109C24.9365 141.987 24.801 141.826 24.7089 141.64L0.992454 93.6067C0.886429 93.3897 0.843654 93.1474 0.869011 92.9073C0.894367 92.6672 0.986829 92.439 1.13587 92.2488C1.2849 92.0585 1.48452 91.9139 1.71198 91.8313C1.93944 91.7487 2.18559 91.7314 2.42238 91.7815L3.2171 91.9528L62.9316 104.799C63.1687 104.85 63.3866 104.967 63.5602 105.136C63.7339 105.305 63.8563 105.519 63.9136 105.754C63.9708 105.989 63.9605 106.236 63.8838 106.465C63.8072 106.695 63.6672 106.898 63.48 107.052Z" fill="#3F3D56"/>
<path d="M53.8329 115.255L53.478 116.035L53.2587 115.939L53.2578 115.935L2.92957 93.1749L44.9547 123.968L44.9588 123.967L45.07 124.052L44.5633 124.743L43.8326 124.207L2.41875 93.8669C2.25588 93.75 2.13907 93.5801 2.08854 93.3865C2.038 93.1928 2.0569 92.9877 2.14198 92.8064C2.22705 92.6252 2.37296 92.4794 2.55445 92.3941C2.73594 92.3088 2.94161 92.2895 3.13589 92.3394C3.18349 92.351 3.22983 92.3672 3.27425 92.3878L53.6424 115.17L53.8329 115.255Z" fill="#3F3D56"/>
</g>
<defs>
<clipPath id="clip0">
<rect width="214" height="277" fill="white"/>
</clipPath>
</defs>
</svg>
